<?xml version="1.0" encoding="utf-8"?>
<!-- Generator: Adobe Illustrator 21.0.0, SVG Export Plug-In . SVG Version: 6.00 Build 0)  -->
<svg version="1.1" id="Layer_1" xmlns="http://www.w3.org/2000/svg" xmlns:xlink="http://www.w3.org/1999/xlink" x="0px" y="0px"
	 viewBox="0 0 277.3 75.3" style="enable-background:new 0 0 277.3 75.3;" xml:space="preserve">
<style type="text/css">
	.st0{fill:#0067AC;}
	.st1{fill:#939598;}
</style>
<g>
	<g>
		<path class="st0" d="M0,0h39v14H15v15h16v14H16v15h23v16H0V0z"/>
		<path class="st0" d="M42,0h14v74H42V0z"/>
		<path class="st0" d="M62,0h14v74H62V0z"/>
		<path class="st0" d="M81,0h14v15H81V0z M81,22h14v52H81V22z"/>
		<path class="st0" d="M112.7,51c0,4.6,0.8,12.3,6.3,12.3c3.3,0,6.2-2.9,7-7.1l9.3,4.1c-0.6,2.4-4.9,14.1-17.3,14.1
			c-13.3,0-19.4-12.9-19.4-27.3c0-14.7,6.3-27.1,19.2-27.1c13.4,0,18.1,13.9,18.1,27.4V51L112.7,51z M122.9,41
			c-0.1-4.8-0.4-10.5-5.2-10.5c-3.9,0-5.1,5.6-5.1,10.5H122.9z"/>
		<path class="st1" d="M139.9,0h21.6l6.6,41h0.2L176,0h21v74h-16V20h-0.2l-10.9,54h-7.8l-9.9-56H152v56h-12L139.9,0L139.9,0z"/>
		<path class="st1" d="M222.8,37c0-3.2-1-6.2-3.4-6.2c-3,0-4.1,4-4.3,7l-11.5-3.1c1.4-10.4,8.7-14.6,16.2-14.6
			c7.9,0,16.1,4.4,16.1,16v29.4c0,6,0.8,7.7,1.2,8.5h-13.6c-0.3-1.5-0.3-3.3-0.4-4.8c-2.4,3.6-5.9,6.1-9.9,6.1
			c-7.1,0-11.7-5.9-11.7-16.2c0-14.2,12.3-18.3,21.3-18.6V37H222.8z M222,48.9c-5.3,0.6-8.5,1.8-8.5,9.4c0,3.6,1.5,5.6,4,5.6
			c1.2,0,2.7-1,4.5-3.3V48.9z"/>
		<path class="st1" d="M248.7,51c0,4.6,0.8,12.3,6.3,12.3c3.3,0,6.2-2.9,7-7.1l9.3,4.1c-0.6,2.4-4.9,14.1-17.3,14.1
			c-13.3,0-19.4-12.9-19.4-27.3c0-14.7,6.3-27.1,19.2-27.1c13.4,0,18.1,13.9,18.1,27.4V51L248.7,51z M259.4,41
			c-0.1-4.8-0.4-10.5-5.2-10.5c-3.9,0-5.1,5.6-5.1,10.5H259.4z"/>
	</g>
	<g>
		<path class="st1" d="M273.2,20.9c2.2,0,4.1,2.2,4.1,5c0,2.7-1.8,5-4.1,5c-2.2,0-4.1-2.2-4.1-5C269.1,23.2,270.9,20.9,273.2,20.9z
			 M273.2,29.5c1.7,0,2.9-1.5,2.9-3.6s-1.2-3.6-2.9-3.6c-1.7,0-2.9,1.5-2.9,3.6S271.5,29.5,273.2,29.5z M272.8,29H271v-5h1.7
			c1,0,1.6,0.4,1.6,1.5c0,1-0.5,1.4-1,1.4l1.1,2.1h-0.4l-0.8-2H273v2H272.8z M273,25h0.3c0.3,0.5,0.5,0.4,0.5,0c0-0.5-0.2-0.5-0.5-1
			H273V25z"/>
	</g>
</g>
</svg>
